<?xml version="1.0" standalone="no"?>
<!DOCTYPE svg PUBLIC "-//W3C//DTD SVG 20010904//EN"
 "http://www.w3.org/TR/2001/REC-SVG-20010904/DTD/svg10.dtd">
<svg version="1.0" xmlns="http://www.w3.org/2000/svg"
 width="1350.000000pt" height="759.000000pt" viewBox="0 0 1350.000000 759.000000"
 preserveAspectRatio="xMidYMid meet">
<metadata>
Created by potrace 1.10, written by Peter Selinger 2001-2011
</metadata>
<g transform="translate(0.000000,759.000000) scale(0.100000,-0.100000)"
fill="#0065fc" stroke="none">
<path d="M7475 4825 c-44 -8 -108 -14 -141 -14 -34 -1 -78 -8 -97 -16 -20 -8
-54 -15 -75 -15 -22 0 -56 -7 -75 -15 -20 -8 -52 -15 -71 -15 -18 0 -47 -7
-62 -15 -16 -8 -45 -15 -65 -15 -19 0 -44 -7 -55 -15 -10 -8 -32 -15 -49 -15
-16 0 -48 -7 -70 -15 -22 -8 -54 -14 -71 -15 -18 0 -45 -7 -60 -15 -16 -8 -43
-15 -60 -15 -17 0 -48 -7 -67 -15 -20 -8 -52 -15 -70 -15 -19 0 -51 -7 -70
-15 -20 -8 -56 -15 -79 -15 -24 0 -68 -7 -98 -15 -79 -21 -460 -21 -520 0 -23
8 -59 15 -79 15 -20 1 -47 7 -61 15 -15 9 -53 14 -95 14 -62 0 -74 -3 -103
-27 l-33 -27 0 -824 0 -824 22 -20 c27 -25 88 -57 109 -57 8 0 28 -7 44 -15
15 -8 39 -15 53 -15 13 0 34 -6 46 -12 12 -7 58 -16 102 -19 44 -4 120 -13
168 -20 78 -12 101 -11 190 4 56 9 129 17 162 18 33 0 78 6 100 14 22 8 54 15
71 15 17 0 51 7 74 15 23 8 59 15 79 15 20 1 47 7 61 15 14 8 39 14 56 15 17
0 48 7 67 15 20 8 51 15 69 15 18 0 42 7 52 15 11 8 36 15 57 15 20 0 50 7 65
15 16 8 47 15 69 15 22 1 51 7 65 15 14 8 41 14 61 15 20 0 53 7 72 15 20 8
58 15 84 15 26 0 73 7 103 15 79 21 450 21 510 0 23 -8 59 -15 79 -15 20 -1
47 -7 61 -15 15 -9 53 -14 95 -15 64 0 74 3 105 29 l35 29 0 819 0 820 -25 26
c-14 15 -32 27 -41 27 -9 0 -22 6 -28 14 -6 8 -24 16 -39 19 -15 2 -40 9 -57
15 -61 21 -122 34 -195 42 -41 4 -102 13 -135 19 -75 14 -137 12 -240 -4z
m385 -215 c19 -6 56 -15 82 -20 27 -5 59 -17 73 -26 25 -17 26 -18 23 -138 -3
-114 -4 -121 -23 -119 -56 5 -104 32 -165 93 -61 61 -78 90 -97 168 -11 46 33
64 107 42z m-2306 -245 c27 -8 76 -15 108 -15 33 0 68 -5 79 -10 23 -13 25
-43 4 -60 -8 -7 -15 -20 -15 -30 0 -9 -9 -28 -20 -41 -45 -53 -83 -89 -95 -89
-7 0 -18 -7 -25 -15 -7 -8 -24 -15 -39 -15 -15 0 -32 -5 -38 -11 -6 -6 -23 -9
-39 -7 l-29 3 -3 140 c-1 76 0 145 2 152 7 17 49 16 110 -2z m1281 -126 c5 -5
17 -9 27 -9 18 0 54 -22 106 -65 35 -29 112 -131 112 -148 0 -8 7 -20 15 -27
8 -7 15 -29 15 -49 0 -20 6 -43 13 -50 8 -8 12 -44 12 -106 0 -62 -4 -98 -12
-107 -7 -6 -13 -29 -13 -49 0 -20 -7 -42 -15 -49 -8 -7 -15 -19 -15 -27 0 -7
-10 -28 -22 -46 -28 -40 -127 -137 -140 -137 -5 0 -16 -7 -24 -15 -9 -8 -25
-15 -38 -15 -12 0 -28 -6 -35 -12 -16 -17 -147 -16 -163 0 -7 7 -23 12 -35 12
-49 0 -222 165 -223 212 0 7 -7 22 -15 32 -8 11 -15 34 -15 51 0 17 -6 37 -12
43 -9 9 -13 45 -13 107 0 62 4 98 13 106 6 7 12 27 12 44 0 17 7 40 15 51 8
10 15 25 15 32 0 34 136 182 166 182 6 0 14 7 18 15 3 8 16 15 29 15 13 0 27
4 33 9 21 21 167 21 189 0z m1200 -904 l0 -140 -39 -3 c-21 -2 -56 4 -77 12
-22 9 -61 16 -88 16 -70 0 -79 15 -47 82 14 29 40 68 58 87 48 48 127 91 163
88 l30 -2 0 -140z m-2489 -89 c43 -12 109 -57 133 -90 8 -10 22 -26 33 -35 10
-8 18 -23 18 -31 0 -9 7 -25 15 -36 8 -10 15 -38 15 -61 l0 -43 -62 0 c-35 1
-81 7 -103 15 -22 8 -51 15 -65 15 -14 0 -40 9 -57 20 l-33 20 0 113 c0 120 8
144 45 132 11 -4 38 -12 61 -19z"/>
</g>
</svg>
